<?xml version="1.0" encoding="utf-8"?>
<!-- Generator: Adobe Illustrator 19.2.0, SVG Export Plug-In . SVG Version: 6.00 Build 0)  -->
<svg version="1.1" id="Layer_1" xmlns="http://www.w3.org/2000/svg" xmlns:xlink="http://www.w3.org/1999/xlink" x="0px" y="0px"
	 viewBox="0 0 250 60" style="enable-background:new 0 0 250 60;" xml:space="preserve">
<style type="text/css">
	.st0{fill:#FFFFFF;}
</style>
<g>
	<g>
		<path class="st0" d="M19.6,27.9l1.8,24.3h13.2L37,19C31.7,22.3,25.8,25.3,19.6,27.9"/>
		<path class="st0" d="M0,34.2L1.9,60h13.2l2.3-31.3C11.7,30.9,5.8,32.8,0,34.2"/>
		<path class="st0" d="M56,0C52.8,6.5,46.7,12.5,39,17.7L41,44.2h13.2L57.4,0H56z"/>
	</g>
	<g>
		<path class="st0" d="M77.2,23.7c-1.1,1.6-2.6,2.2-4.4,2.2c-3.6,0-6.1-2.6-6.1-6.3c0-3.7,2.5-6.3,6.1-6.3c1.6,0,3,0.5,4.1,1.9
			L76,16c-0.7-1.1-2-1.6-3.2-1.6c-3.1,0-5,2.3-5,5.3c0,3,1.9,5.3,5,5.3c1.2,0,2.6-0.6,3.5-1.9L77.2,23.7z"/>
		<polygon class="st0" points="80.8,13.6 88.1,13.6 88.1,14.6 81.9,14.6 81.9,18.9 87.7,18.9 87.7,19.9 81.9,19.9 81.9,24.6 
			88.3,24.6 88.3,25.6 80.8,25.6 		"/>
		<polygon class="st0" points="92.1,13.6 93.6,13.6 100.7,24.1 100.8,24.1 100.8,13.6 101.9,13.6 101.9,25.6 100.5,25.6 93.3,15.1 
			93.2,15.1 93.2,25.6 92.1,25.6 		"/>
		<polygon class="st0" points="109.4,14.6 105.4,14.6 105.4,13.6 114.6,13.6 114.6,14.6 110.5,14.6 110.5,25.6 109.4,25.6 		"/>
		<polygon class="st0" points="118.1,13.6 125.3,13.6 125.3,14.6 119.2,14.6 119.2,18.9 124.9,18.9 124.9,19.9 119.2,19.9 
			119.2,24.6 125.6,24.6 125.6,25.6 118.1,25.6 		"/>
		<path class="st0" d="M129.4,13.6h3.1c0.9,0,4.2,0,4.2,3.1c0,2.3-1.7,2.9-3,3.1l3.4,5.7h-1.2l-3.3-5.7h-2v5.7h-1.1V13.6z
			 M130.5,18.9h2.3c2.3,0,2.8-1.3,2.8-2.1c0-0.8-0.5-2.1-2.8-2.1h-2.3V18.9z"/>
		<polygon class="st0" points="147.3,13.6 154.4,13.6 154.4,14.6 148.4,14.6 148.4,18.9 153.9,18.9 153.9,19.9 148.4,19.9 
			148.4,25.6 147.3,25.6 		"/>
		<path class="st0" d="M163.6,13.3c3.6,0,6.1,2.6,6.1,6.3c0,3.7-2.5,6.3-6.1,6.3c-3.6,0-6.1-2.6-6.1-6.3
			C157.5,16,160,13.3,163.6,13.3 M163.6,24.9c3.1,0,5-2.3,5-5.3c0-3-1.9-5.3-5-5.3c-3.1,0-5,2.3-5,5.3
			C158.6,22.6,160.5,24.9,163.6,24.9"/>
		<path class="st0" d="M173.9,13.6h3.1c0.9,0,4.2,0,4.2,3.1c0,2.3-1.7,2.9-3,3.1l3.4,5.7h-1.2l-3.3-5.7h-2v5.7h-1.1V13.6z M175,18.9
			h2.3c2.3,0,2.8-1.3,2.8-2.1c0-0.8-0.5-2.1-2.8-2.1H175V18.9z"/>
		<polygon class="st0" points="191.6,13.6 193.3,13.6 197.6,23.7 201.9,13.6 203.4,13.6 203.4,25.6 202.3,25.6 202.3,15 202.3,15 
			197.8,25.6 197.3,25.6 192.8,15 192.7,15 192.7,25.6 191.6,25.6 		"/>
		<rect x="208.2" y="13.6" class="st0" width="1.1" height="12"/>
		<polygon class="st0" points="216.9,14.6 212.9,14.6 212.9,13.6 222,13.6 222,14.6 218,14.6 218,25.6 216.9,25.6 		"/>
		<polygon class="st0" points="67.3,0.3 69.7,0.3 71.4,5.1 71.4,5.1 73.1,0.3 75.5,0.3 75.5,7.6 73.9,7.6 73.9,2 73.8,2 71.9,7.6 
			70.7,7.6 68.9,2 68.9,2 68.9,7.6 67.3,7.6 		"/>
		<path class="st0" d="M83.1,0.3h1.3l3.2,7.4h-1.8l-0.6-1.6h-2.8l-0.6,1.6H80L83.1,0.3z M83.7,2.4l-0.9,2.3h1.8L83.7,2.4z"/>
		<path class="st0" d="M92.1,0.3h2.8c1.5,0,2.7,0.5,2.7,2.2c0,1-0.5,1.8-1.6,2l1.8,3.1H96l-1.5-2.9h-0.8v2.9h-1.6V0.3z M93.7,3.3
			h0.9c0.6,0,1.3,0,1.3-0.8c0-0.7-0.7-0.9-1.2-0.9h-1V3.3z"/>
		<polygon class="st0" points="104,1.7 101.9,1.7 101.9,0.3 107.7,0.3 107.7,1.7 105.6,1.7 105.6,7.6 104,7.6 		"/>
		<rect x="112.2" y="0.3" class="st0" width="1.6" height="7.4"/>
		<polygon class="st0" points="119,0.3 121.2,0.3 124.2,5.4 124.3,5.4 124.3,0.3 125.9,0.3 125.9,7.6 123.8,7.6 120.6,2.4 
			120.6,2.4 120.6,7.6 119,7.6 		"/>
		<polygon class="st0" points="139.3,1.7 137.3,1.7 137.3,0.3 143,0.3 143,1.7 140.9,1.7 140.9,7.6 139.3,7.6 		"/>
		<path class="st0" d="M147.5,0.3h2.8c1.5,0,2.7,0.5,2.7,2.2c0,1-0.5,1.8-1.6,2l1.8,3.1h-1.9l-1.5-2.9h-0.8v2.9h-1.6V0.3z
			 M149.1,3.3h0.9c0.6,0,1.3,0,1.3-0.8c0-0.7-0.7-0.9-1.2-0.9h-1V3.3z"/>
		<path class="st0" d="M164,4.8c0,1.7-1,3-3,3c-2,0-3.1-1.3-3.1-3V0.3h1.6v4.5c0,0.9,0.6,1.6,1.5,1.6c0.8,0,1.5-0.7,1.5-1.6V0.3h1.6
			V4.8z"/>
		<path class="st0" d="M172.7,2.1c-0.3-0.3-0.8-0.5-1.2-0.5c-0.5,0-1.1,0.2-1.1,0.8c0,1.3,3.3,0.5,3.3,3.1c0,1.6-1.3,2.4-2.8,2.4
			c-0.9,0-1.8-0.3-2.4-0.9l1.1-1.3c0.3,0.4,0.9,0.7,1.4,0.7c0.5,0,1.1-0.2,1.1-0.8c0-1.4-3.4-0.6-3.4-3.1c0-1.6,1.3-2.4,2.8-2.4
			c0.8,0,1.6,0.2,2.2,0.8L172.7,2.1z"/>
		<polygon class="st0" points="180.3,1.7 178.2,1.7 178.2,0.3 183.9,0.3 183.9,1.7 181.9,1.7 181.9,7.6 180.3,7.6 		"/>
		<polygon class="st0" points="68.2,32.1 75.4,32.1 75.4,33.1 69.3,33.1 69.3,37.4 75,37.4 75,38.4 69.3,38.4 69.3,43.1 75.6,43.1 
			75.6,44.1 68.2,44.1 		"/>
		<polygon class="st0" points="79.5,32.1 80.9,32.1 88.1,42.6 88.1,42.6 88.1,32.1 89.2,32.1 89.2,44.1 87.8,44.1 80.6,33.6 
			80.6,33.6 80.6,44.1 79.5,44.1 		"/>
		<polygon class="st0" points="96.8,33.1 92.7,33.1 92.7,32.1 101.9,32.1 101.9,33.1 97.9,33.1 97.9,44.1 96.8,44.1 		"/>
		<path class="st0" d="M105.4,32.1h3.1c0.9,0,4.2,0,4.2,3.1c0,2.3-1.7,2.9-3,3.1l3.4,5.7h-1.2l-3.3-5.7h-2v5.7h-1.1V32.1z
			 M106.5,37.4h2.3c2.3,0,2.8-1.3,2.8-2.1c0-0.8-0.5-2.1-2.8-2.1h-2.3V37.4z"/>
		<polygon class="st0" points="116.9,32.1 124.1,32.1 124.1,33.1 118,33.1 118,37.4 123.8,37.4 123.8,38.4 118,38.4 118,43.1 
			124.4,43.1 124.4,44.1 116.9,44.1 		"/>
		<path class="st0" d="M128.2,32.1h3.4c1.7,0,3.8,0.7,3.8,3.2c0,2.2-1.7,3.1-3.5,3.1h-2.5v5.7h-1.1V32.1z M129.3,37.4h2.5
			c1.3,0,2.5-0.5,2.5-2.1c0-1.5-1.3-2.1-2.6-2.1h-2.4V37.4z"/>
		<path class="st0" d="M139.2,32.1h3.1c0.9,0,4.2,0,4.2,3.1c0,2.3-1.7,2.9-3,3.1l3.4,5.7h-1.2l-3.3-5.7h-2v5.7h-1.1V32.1z
			 M140.3,37.4h2.3c2.3,0,2.8-1.3,2.8-2.1c0-0.8-0.5-2.1-2.8-2.1h-2.3V37.4z"/>
		<polygon class="st0" points="150.7,32.1 157.9,32.1 157.9,33.1 151.8,33.1 151.8,37.4 157.6,37.4 157.6,38.4 151.8,38.4 
			151.8,43.1 158.2,43.1 158.2,44.1 150.7,44.1 		"/>
		<polygon class="st0" points="162,32.1 163.4,32.1 170.6,42.6 170.7,42.6 170.7,32.1 171.8,32.1 171.8,44.1 170.3,44.1 163.2,33.6 
			163.1,33.6 163.1,44.1 162,44.1 		"/>
		<polygon class="st0" points="176.6,32.1 183.8,32.1 183.8,33.1 177.7,33.1 177.7,37.4 183.4,37.4 183.4,38.4 177.7,38.4 
			177.7,43.1 184.1,43.1 184.1,44.1 176.6,44.1 		"/>
		<path class="st0" d="M196.3,39.5c0,2.6-1.1,4.9-4.3,4.9c-3.2,0-4.3-2.3-4.3-4.9v-7.4h1.1v7.1c0,1.7,0.4,4.2,3.2,4.2
			c2.7,0,3.2-2.5,3.2-4.2v-7.1h1.1V39.5z"/>
		<path class="st0" d="M201,32.1h3.1c0.9,0,4.2,0,4.2,3.1c0,2.3-1.7,2.9-3,3.1l3.4,5.7h-1.2l-3.3-5.7h-2v5.7H201V32.1z M202.1,37.4
			h2.3c2.3,0,2.8-1.3,2.8-2.1c0-0.8-0.5-2.1-2.8-2.1h-2.3V37.4z"/>
		<path class="st0" d="M212.7,41.9c0.6,1,1.5,1.5,2.7,1.5c1.5,0,2.6-0.9,2.6-2.4c0-3.3-6.1-1.4-6.1-5.9c0-2.1,1.8-3.3,3.8-3.3
			c1.3,0,2.4,0.4,3.2,1.5l-1,0.7c-0.5-0.8-1.3-1.2-2.3-1.2c-1.4,0-2.6,0.7-2.6,2.3c0,3.6,6.1,1.4,6.1,5.9c0,2.2-1.8,3.4-3.7,3.4
			c-1.6,0-2.9-0.5-3.8-1.8L212.7,41.9z"/>
		<polygon class="st0" points="223.2,32.1 224.3,32.1 224.3,37.4 230.9,37.4 230.9,32.1 232,32.1 232,44.1 230.9,44.1 230.9,38.4 
			224.3,38.4 224.3,44.1 223.2,44.1 		"/>
		<rect x="236.9" y="32.1" class="st0" width="1.1" height="12"/>
		<path class="st0" d="M242.8,32.1h3.4c1.7,0,3.8,0.7,3.8,3.2c0,2.2-1.7,3.1-3.5,3.1h-2.5v5.7h-1.1V32.1z M243.9,37.4h2.5
			c1.3,0,2.5-0.5,2.5-2.1c0-1.5-1.3-2.1-2.6-2.1h-2.4V37.4z"/>
	</g>
</g>
</svg>
